HIERARCHY
ROOT Hips
{
	OFFSET 0.00000 0.00000 0.00000
	CHANNELS 6 Xposition Yposition Zposition Zrotation Yrotation Xrotation 
	JOINT LHipJoint
	{
		OFFSET 0 0 0
		CHANNELS 3 Zrotation Yrotation Xrotation
		JOINT LeftHip
		{
			OFFSET 1.85742 -1.74412 1.01653
			CHANNELS 3 Zrotation Yrotation Xrotation
			JOINT LeftKnee
			{
				OFFSET 2.54803 -7.00067 0.00000
				CHANNELS 3 Zrotation Yrotation Xrotation
				JOINT LeftAnkle
				{
					OFFSET 2.51202 -6.90173 0.00000
					CHANNELS 3 Zrotation Yrotation Xrotation
					JOINT LeftToe
					{
						OFFSET 0.17547 -0.48209 1.64281
						CHANNELS 3 Zrotation Yrotation Xrotation
						End Site
						{
							OFFSET 0.00000 -0.00000 0.86587
						}
					}
				}
			}
		}
	}
	JOINT RHipJoint
	{
		OFFSET 0 0 0
		CHANNELS 3 Zrotation Yrotation Xrotation
		JOINT RightHip
		{
			OFFSET -1.95533 -1.74413 1.01654
			CHANNELS 3 Zrotation Yrotation Xrotation
			JOINT RightKnee
			{
				OFFSET -2.49465 -6.85400 0.00000
				CHANNELS 3 Zrotation Yrotation Xrotation
				JOINT RightAnkle
				{
					OFFSET -2.54783 -7.00010 0.00000
					CHANNELS 3 Zrotation Yrotation Xrotation
					JOINT RightToe
					{
						OFFSET -0.18513 -0.50864 1.69288
						CHANNELS 3 Zrotation Yrotation Xrotation
						End Site
						{
							OFFSET -0.00000 -0.00000 0.89242
						}
					}
				}
			}
		}
	}
	JOINT lowerback
	{
		OFFSET 0 0 0
		CHANNELS 3 Zrotation Yrotation Xrotation
		JOINT Chest
		{
			OFFSET 0.02173 2.16290 -0.15998
			CHANNELS 3 Zrotation Yrotation Xrotation
			JOINT Chest2
			{
				OFFSET 0.00940 2.17323 -0.00467
				CHANNELS 3 Zrotation Yrotation Xrotation
				JOINT lowerneck
				{
					OFFSET 0 0 0
					CHANNELS 3 Zrotation Yrotation Xrotation
					JOINT Neck
					{
						OFFSET 0.01475 1.85823 0.31113
						CHANNELS 3 Zrotation Yrotation Xrotation
						JOINT Head
						{
							OFFSET 0.01902 1.88783 -0.37187
							CHANNELS 3 Zrotation Yrotation Xrotation
							End Site
							{
								OFFSET 0.00489 1.93211 -0.16169
							}
						}
					}
				}
				JOINT LeftCollar
				{
					OFFSET 0 0 0
					CHANNELS 3 Zrotation Yrotation Xrotation
					JOINT LeftShoulder
					{
						OFFSET 3.34199 1.32384 -0.07862
CHANNELS 3 Zrotation Xrotation Yrotation
						JOINT LeftElbow
						{
OFFSET 0 -5.279500 0.000000
CHANNELS 3 Zrotation Xrotation Yrotation
							JOINT LeftWrist
							{
OFFSET 0 -3.535040 0.000000
CHANNELS 3 Zrotation Xrotation Yrotation
								JOINT lhand
								{
									OFFSET 0 0 0
CHANNELS 3 Zrotation Xrotation Yrotation
									JOINT LFingers
									{
OFFSET 0 -0.667950 0.000000
CHANNELS 3 Zrotation Xrotation Yrotation
										End Site
										{
OFFSET 0 -0.538520 0.000000
										}
									}
								}
								JOINT LThumb
								{
OFFSET 0 0.000000 0.000000
CHANNELS 3 Zrotation Xrotation Yrotation
									End Site
									{
OFFSET 0 -0.546740 0.546740
									}
								}
							}
						}
					}
				}
				JOINT RightCollar
				{
					OFFSET 0 0 0
					CHANNELS 3 Zrotation Yrotation Xrotation
					JOINT RightShoulder
					{
						OFFSET -3.16149 1.45719 -0.50507
CHANNELS 3 Zrotation Xrotation Yrotation
						JOINT RightElbow
						{
OFFSET 0 -5.250350 0.000000
CHANNELS 3 Zrotation Xrotation Yrotation
							JOINT RightWrist
							{
OFFSET 0 -3.588840 0.000000
CHANNELS 3 Zrotation Xrotation Yrotation
								JOINT rhand
								{
									OFFSET 0 0 0
CHANNELS 3 Zrotation Xrotation Yrotation
									JOINT RFingers
									{
OFFSET 0 -0.779240 0.000000
CHANNELS 3 Zrotation Xrotation Yrotation
										End Site
										{
OFFSET 0 -0.628240 0.000000
										}
									}
								}
								JOINT RThumb
								{
OFFSET 0 0.000000 0.000000
CHANNELS 3 Zrotation Xrotation Yrotation
									End Site
									{
OFFSET 0 -0.637830 0.637830
									}
								}
							}
						}
					}
				}
			}
		}
	}
}
MOTION
Frames: 5
Frame Time: 0.008333333333333333
-8.416492 17.428038 0.004494 -159.003190 78.283147 -134.804806 0.000000 0.000000 0.000000 0.026253 -13.492335 -45.984055 2.811140 10.382808 30.225494 0.217368 -4.628233 -8.413570 2.557516 -9.941674 -28.788128 0.000000 0.000000 0.000000 10.836935 9.470189 -17.598092 -0.359488 -3.851308 10.658692 1.048693 -18.675246 -13.227686 -1.318297 7.272036 -20.523950 -1.286349 5.110352 24.537539 -5.267284 6.458978 6.075861 -6.970694 3.378358 -6.333416 3.291108 9.335794 -23.226081 -14.920311 21.388705 33.843139 -2.222879 7.340552 19.362368 0.000000 0.000000 0.000000 40.949028 -52.716738 -21.780030 18.970148 -29.381488 5.016245 71.609423 55.874388 -49.252762 0.000000 0.000000 0.000000 -7.125000 0.000000 0.000000 149.796436 -74.011617 158.812553 0.000000 0.000000 0.000000 -7.309929 -35.978089 78.252283 -130.086881 -52.959343 -93.894927 -33.426016 -36.746495 -27.851828 0.000000 0.000000 0.000000 7.125000 0.000000 0.000000 -1.763691 -2.345600 -1.835710
-8.425327 17.419650 0.005969 -158.836538 78.569751 -134.671107 0.000000 0.000000 0.000000 -0.032587 -13.508006 -45.935024 2.832497 10.418775 30.343806 0.229371 -4.451506 -8.601457 2.634134 -10.077784 -29.228934 0.000000 0.000000 0.000000 10.666580 9.447541 -18.011145 -0.396166 -4.040907 11.191745 0.963696 -18.150595 -13.476330 -1.296767 7.214611 -20.352841 -1.301910 5.158455 24.745733 -5.291827 6.513353 6.125604 -7.025965 3.406411 -6.375329 3.375894 9.410275 -23.351610 -15.347287 21.584779 33.562331 -2.363295 7.383052 19.375179 0.000000 0.000000 0.000000 41.601575 -52.902215 -20.875486 18.655784 -28.988497 4.863033 70.985974 55.358505 -49.454692 0.000000 0.000000 0.000000 -7.125000 0.000000 0.000000 149.998172 -74.399079 158.720594 0.000000 0.000000 0.000000 -8.787744 -34.670370 76.228120 -132.334734 -52.003951 -95.676891 -34.088766 -38.993167 -29.562590 0.000000 0.000000 0.000000 7.125000 0.000000 0.000000 -1.786899 -4.412764 -1.920236
-8.440731 17.415583 0.006023 -158.609487 78.906562 -134.367683 0.000000 0.000000 0.000000 0.112408 -13.828996 -45.933127 2.856109 10.458441 30.474265 0.247103 -3.894784 -8.856652 2.589675 -9.999144 -28.973792 0.000000 0.000000 0.000000 10.462170 9.420264 -18.656100 -0.442815 -4.269338 11.835802 0.874652 -17.608483 -13.792545 -1.268428 7.138260 -20.125771 -1.464656 5.009666 24.843228 -5.119977 6.307143 6.320317 -6.678489 3.316002 -6.267505 3.058432 9.738215 -23.579189 -16.188430 22.419422 32.876445 -2.431228 7.586642 19.327608 0.000000 0.000000 0.000000 42.954787 -52.984210 -18.043863 17.977153 -28.126881 4.538950 69.818488 55.485707 -49.603060 0.000000 0.000000 0.000000 -7.125000 0.000000 0.000000 149.674931 -75.175626 157.995861 0.000000 0.000000 0.000000 -11.518137 -32.741305 73.946514 -135.154796 -50.690343 -97.880461 -36.566901 -42.030192 -31.014391 0.000000 0.000000 0.000000 7.125000 0.000000 0.000000 -2.844132 -6.799762 -3.166727
-8.457590 17.412271 0.008615 -157.461740 79.560375 -132.994055 0.000000 0.000000 0.000000 0.205382 -13.831191 -46.119566 2.887186 10.510225 30.645181 0.260947 -3.338213 -9.079033 2.577517 -9.977329 -28.903541 0.000000 0.000000 0.000000 10.229226 9.298097 -19.746436 -0.502024 -4.541904 12.606565 0.774355 -16.800043 -13.588872 -1.414932 7.522417 -21.272894 -2.024766 4.580407 24.751703 -4.896459 5.633726 6.397252 -5.903676 2.990964 -6.279022 2.906970 10.417338 -23.319125 -17.720426 23.785577 31.487469 -2.678841 8.017907 19.044490 0.000000 0.000000 0.000000 44.629258 -52.147370 -12.582445 16.982346 -26.834430 4.079380 68.047408 55.886534 -49.516304 0.000000 0.000000 0.000000 -7.125000 0.000000 0.000000 148.128800 -76.419737 156.030393 0.000000 0.000000 0.000000 -13.398351 -31.772368 73.195725 -136.670501 -49.923331 -99.047421 -39.700902 -44.058465 -30.638291 0.000000 0.000000 0.000000 7.125000 0.000000 0.000000 -4.661158 -7.499425 -5.245954
-8.466079 17.412238 0.005787 -155.402733 80.415414 -130.637307 0.000000 0.000000 0.000000 0.363582 -13.846351 -46.270402 2.924792 10.572343 30.850733 0.265517 -2.749351 -9.171918 2.417571 -9.686383 -27.967186 0.000000 0.000000 0.000000 10.042762 8.916963 -21.066885 -0.561323 -4.798557 13.335004 0.641545 -15.585511 -13.096245 -1.658422 8.114677 -23.063231 -1.694574 4.655128 24.751015 -5.300324 5.769512 6.276327 -6.588401 3.052439 -6.324020 3.448008 10.466082 -23.463016 -17.832878 23.760437 31.656491 -2.825510 8.030579 19.292646 0.000000 0.000000 0.000000 45.493589 -52.039220 -12.978882 16.899034 -26.724465 4.041864 68.593234 55.252287 -49.416182 0.000000 0.000000 0.000000 -7.125000 0.000000 0.000000 148.161637 -76.074995 156.275554 0.000000 0.000000 0.000000 -13.220328 -30.962676 72.587187 -136.805804 -49.852473 -99.150894 -37.551096 -42.065980 -30.121268 0.000000 0.000000 0.000000 7.125000 0.000000 0.000000 -3.603024 -6.153070 -3.976018
